<svg width="32" height="32" viewBox="0 0 32 32" fill="none" xmlns="http://www.w3.org/2000/svg">
<circle cx="16" cy="16" r="16" fill="#FC826D"/>
<path fill-rule="evenodd" clip-rule="evenodd" d="M16 32C24.8366 32 32 24.8366 32 16C32 15.8053 31.9965 15.6113 31.9896 15.4183L23.9007 7.32938L7.47171 23.7584L15.7108 31.9974C15.807 31.9991 15.9034 32 16 32Z" fill="#E77763"/>
<path d="M7.31428 9.31427C7.31428 8.2097 8.20971 7.31427 9.31428 7.31427H16V10.9714H7.31428V9.31427Z" fill="white"/>
<path d="M7.31428 22.2286C7.31428 23.3331 8.20971 24.2286 9.31428 24.2286H16V11.4286H7.31428V22.2286Z" fill="white"/>
<path d="M24.6857 9.31427C24.6857 8.2097 23.7903 7.31427 22.6857 7.31427H16V10.9714H24.6857V9.31427Z" fill="#F3F3F3"/>
<path d="M24.6857 22.2286C24.6857 23.3331 23.7903 24.2286 22.6857 24.2286H16V11.4286H24.6857V22.2286Z" fill="#F3F3F3"/>
<path d="M16.9697 13.0701V20.3428H16.5258V13.5389H16.4832L14.8497 14.622V14.1461L16.469 13.0701H16.9697Z" fill="#F15B5C"/>
</svg>
