<svg width="37" height="27" viewBox="0 0 37 27" fill="none" xmlns="http://www.w3.org/2000/svg">
<circle cx="18.1753" cy="14.134" r="6.57732" stroke="white" stroke-width="2"/>
<path d="M28.0979 25.5H8C4.13401 25.5 1 22.366 1 18.5V11.8294C1 9.50912 2.66323 7.52258 4.94737 7.1147L5.52737 7.01113C7.06988 6.73568 8.29781 5.56388 8.64507 4.03593C9.04865 2.26016 10.6273 1 12.4484 1H24.0844C25.9641 1 27.6111 2.25803 28.1057 4.07142C28.5211 5.59457 29.7614 6.75228 31.3095 7.0619L31.4977 7.09953C33.5911 7.51821 35.0979 9.35629 35.0979 11.4911V18.5C35.0979 22.366 31.9639 25.5 28.0979 25.5Z" stroke="white" stroke-width="2"/>
<path d="M13.6289 14.134V13.8814C13.6289 11.6495 15.4382 9.84021 17.6701 9.84021V9.84021" stroke="white" stroke-linecap="round"/>
</svg>
