<svg width="54" height="54" viewBox="0 0 54 54" fill="none" xmlns="http://www.w3.org/2000/svg">
<circle cx="27" cy="27" r="27" fill="white"/>
<path d="M18.2152 35.866C22.1809 36.3573 23.8333 34.2282 24.1638 32.5905C24.3529 31.6532 25.2455 24.3866 25.9745 18.342M18.2152 35.866C14.2495 35.3746 14.0843 32.7542 14.2495 30.9527C14.3367 30.0019 15.6666 23.8965 16.9032 18.342M18.2152 35.866L17.0586 44.7098M17.0586 44.7098C17.0586 44.7098 12.1015 44.3823 11.9362 45.3649C11.771 46.3476 15.0757 47.3302 16.0671 47.494C17.0586 47.6578 20.6938 48.1491 20.859 46.8389C21.0242 45.5287 17.0586 44.7098 17.0586 44.7098ZM16.9032 18.342C18.0096 13.3719 18.5457 9.17061 19.0414 8.84306C19.5371 8.51551 26.8075 9.8257 26.9728 9.98948C27.138 10.1533 26.5194 13.8245 25.9745 18.342M16.9032 18.342C16.9032 18.342 19.0414 19.4884 21.52 18.6696C23.9985 17.8507 25.9745 18.342 25.9745 18.342" stroke="#6C5C44"/>
<path d="M35.7848 35.6747C31.8191 36.174 30.1667 34.0106 29.8362 32.3464C29.6471 31.394 28.7545 24.0102 28.0255 17.8681M35.7848 35.6747C39.7505 35.1755 39.9157 32.5128 39.7505 30.6822C39.6633 29.7161 38.3334 23.5122 37.0968 17.8681M35.7848 35.6747L36.9414 44.6612M36.9414 44.6612C36.9414 44.6612 41.8985 44.3284 42.0638 45.3269C42.229 46.3254 38.9243 47.3239 37.9329 47.4903C36.9414 47.6567 33.3062 48.156 33.141 46.8246C32.9758 45.4933 36.9414 44.6612 36.9414 44.6612ZM37.0968 17.8681C35.9904 12.8179 35.4543 8.54881 34.9586 8.21597C34.4629 7.88314 27.1925 9.21446 27.0272 9.38089C26.862 9.54732 27.4806 13.2777 28.0255 17.8681M37.0968 17.8681C37.0968 17.8681 34.9586 19.0331 32.48 18.201C30.0015 17.3689 28.0255 17.8681 28.0255 17.8681" stroke="#6C5C44"/>
<circle cx="17.2675" cy="30.4535" r="0.94186" fill="#6C5C44"/>
<circle cx="21.9768" cy="26.3721" r="0.627907" fill="#6C5C44"/>
<circle cx="19.4651" cy="21.9768" r="0.627907" fill="#6C5C44"/>
<circle cx="33.2791" cy="30.1395" r="0.627907" fill="#6C5C44"/>
<circle cx="34.8488" cy="25.4302" r="0.94186" fill="#6C5C44"/>
<line x1="26.8721" y1="4.26744" x2="26.8721" y2="6.40698" stroke="#6C5C44" stroke-linecap="round"/>
<line x1="31.0027" y1="5.18079" x2="29.3458" y2="7.0744" stroke="#6C5C44" stroke-linecap="round"/>
<line x1="0.5" y1="-0.5" x2="3.01616" y2="-0.5" transform="matrix(0.658505 0.752577 0.752577 -0.658505 23.0171 4.47525)" stroke="#6C5C44" stroke-linecap="round"/>
</svg>
