<svg width="58" height="61" viewBox="0 0 58 61" fill="none" xmlns="http://www.w3.org/2000/svg">
<rect x="28.4746" y="30.1412" width="17.9412" height="17.9412" transform="rotate(45 28.4746 30.1412)" fill="#FC826D"/>
<rect width="57.4118" height="44.4941" rx="15" fill="#FC826D"/>
<path d="M35.8824 9.68823C30.1413 9.68823 28.706 15.0706 28.706 15.0706C28.706 15.0706 26.553 9.68823 21.5295 9.68823C16.506 9.68823 12.5589 15.0706 14.7119 20.0941C16.8648 25.1176 28.706 35.5235 28.706 35.5235C28.706 35.5235 40.5471 25.4765 42.7001 20.0941C44.853 14.7118 41.6236 9.68823 35.8824 9.68823Z" fill="white"/>
<path d="M16.1471 19.0177C16.1471 19.0177 15.4296 16.5059 16.8649 13.9941C18.3002 11.4823 20.4529 11.1235 20.4529 11.1235" stroke="#FC826D" stroke-linecap="round"/>
<ellipse cx="28.3471" cy="59.9235" rx="21.8882" ry="1.07647" fill="#E6E7E8"/>
<ellipse cx="7.53529" cy="0.358824" rx="7.53529" ry="0.358824" transform="matrix(1 0 0 -1 20.8118 60.2823)" fill="#939598"/>
</svg>
