<svg width="18" height="24" viewBox="0 0 18 24" fill="none" xmlns="http://www.w3.org/2000/svg">
<path d="M17 4.07377V22C17 22.5523 16.5523 23 16 23H2C1.44772 23 1 22.5523 1 22V4.07377C1 3.52149 1.44772 3.07377 2 3.07377H5.0663H6.30387V3C6.30387 1.89543 7.1993 1 8.30387 1H9.69613C10.8007 1 11.6961 1.89543 11.6961 3V3.07377H12.7569H16C16.5523 3.07377 17 3.52149 17 4.07377Z" fill="white"/>
<path d="M12.7569 3.07377H11.6961V3C11.6961 1.89543 10.8007 1 9.69613 1H8.30387C7.1993 1 6.30387 1.89543 6.30387 3V3.07377H5.0663M12.7569 3.07377H16C16.5523 3.07377 17 3.52149 17 4.07377V22C17 22.5523 16.5523 23 16 23H2C1.44772 23 1 22.5523 1 22V4.07377C1 3.52149 1.44772 3.07377 2 3.07377H5.0663M12.7569 3.07377V4.77869C12.7569 5.33097 12.3092 5.77869 11.7569 5.77869H6.0663C5.51401 5.77869 5.0663 5.33097 5.0663 4.77869V3.07377" stroke="#6C5C44" stroke-linecap="round"/>
<circle cx="9" cy="3" r="0.5" stroke="#6C5C44"/>
<line x1="3.5" y1="9.5" x2="8.5" y2="9.5" stroke="#6C5C44" stroke-linecap="round"/>
<line x1="3.5" y1="12.5" x2="8.5" y2="12.5" stroke="#6C5C44" stroke-linecap="round"/>
<line x1="3.5" y1="15.5" x2="8.5" y2="15.5" stroke="#6C5C44" stroke-linecap="round"/>
<line x1="3.5" y1="18.5" x2="8.5" y2="18.5" stroke="#6C5C44" stroke-linecap="round"/>
<path d="M11 9.08333L11.9429 10L14 8" stroke="#6C5C44" stroke-linecap="round"/>
<path d="M11 12.0833L11.9429 13L14 11" stroke="#6C5C44" stroke-linecap="round"/>
<path d="M11 15.0833L11.9429 16L14 14" stroke="#6C5C44" stroke-linecap="round"/>
<path d="M11 18.0833L11.9429 19L14 17" stroke="#6C5C44" stroke-linecap="round"/>
</svg>
