<svg width="22" height="28" viewBox="0 0 22 28" fill="none" xmlns="http://www.w3.org/2000/svg">
<path d="M21.5 21.5V4.5C21.5 3.94772 21.0523 3.5 20.5 3.5H16M1 6V4.5C1 3.94772 1.44772 3.5 2 3.5H6M16 3.5C16 2.94772 15.5523 2.5 15 2.5H14.7208C14.2903 2.5 13.9007 2.21503 13.602 1.90508C13.1985 1.48627 12.4234 1 11 1C9.57658 1 8.80152 1.48627 8.39795 1.90508C8.09928 2.21503 7.70967 2.5 7.27924 2.5H7C6.44772 2.5 6 2.94772 6 3.5M16 3.5V5.5M6 3.5V5.5M12 6.5H7C6.44772 6.5 6 6.05228 6 5.5V5.5M14 6.5H15C15.5523 6.5 16 6.05228 16 5.5V5.5M1 7.5V8.5M1 10V26C1 26.5523 1.44772 27 2 27H20.5C21.0523 27 21.5 26.5523 21.5 26V23.5M6 5.5H4C3.44772 5.5 3 5.94772 3 6.5V23C3 23.5523 3.44772 24 4 24H18.5C19.0523 24 19.5 23.5523 19.5 23V6.5C19.5 5.94772 19.0523 5.5 18.5 5.5H16M5 10H7.27924M8.39795 10H17M5 12H17M5 14H12.5M13.602 14H17M5 16H17M5 18H6M7.27924 18H8.39795M9.5 18H17M5 20H17" stroke="#6C5C44" stroke-width="0.8" stroke-linecap="round"/>
<circle cx="11" cy="3.5" r="1" fill="#6C5C44"/>
</svg>
