<svg width="884" height="219" viewBox="0 0 884 219" fill="none" xmlns="http://www.w3.org/2000/svg">
<path d="M1 1C1 1 215.86 50.5063 433.625 50.9965C651.39 51.4866 883 1 883 1" stroke="white" stroke-width="0.7"/>
<rect x="85.7036" y="36.2762" width="91" height="91" transform="rotate(10.2733 85.7036 36.2762)" stroke="white"/>
<rect x="71.6513" y="18.485" width="125" height="163" transform="rotate(10.2733 71.6513 18.485)" stroke="white"/>
<rect x="131.357" y="22.7007" width="6" height="12" transform="rotate(10.2733 131.357 22.7007)" fill="white"/>
<rect x="282.901" y="63.3033" width="91" height="91" transform="rotate(3.68137 282.901 63.3033)" stroke="white"/>
<rect x="266.899" y="47.2427" width="125" height="163" transform="rotate(3.68137 266.899 47.2427)" stroke="white"/>
<rect x="326.693" y="44.5767" width="6" height="12" transform="rotate(3.68137 326.693 44.5767)" fill="white"/>
<rect x="499.946" y="69.4045" width="91" height="91" transform="rotate(-3.72284 499.946 69.4045)" stroke="white"/>
<rect x="482.008" y="55.54" width="125" height="163" transform="rotate(-3.72284 482.008 55.54)" stroke="white"/>
<rect x="540.96" y="45.1904" width="6" height="12" transform="rotate(-3.72284 540.96 45.1904)" fill="white"/>
<rect x="707.358" y="48.5888" width="91" height="91" transform="rotate(-8.10844 707.358 48.5888)" stroke="white"/>
<rect x="688.412" y="36.1364" width="125" height="163" transform="rotate(-8.10844 688.412 36.1364)" stroke="white"/>
<rect x="746.4" y="21.3091" width="6" height="12" transform="rotate(-8.10844 746.4 21.3091)" fill="white"/>
</svg>
