<svg width="47" height="47" viewBox="0 0 47 47" fill="none" xmlns="http://www.w3.org/2000/svg">
<circle cx="23.5" cy="23.5" r="23.5" fill="#6C5C44"/>
<path d="M26.2343 6.89349C26.1428 7.63225 25.0062 9.42689 24.1891 10.6379C23.7959 11.2207 22.9482 11.1983 22.5849 10.5964C21.8545 9.38623 20.8561 7.62385 20.7657 6.89349C20.6218 5.7305 21.3413 4.27671 23.3561 4.13134C25.3708 3.98596 26.3782 5.73049 26.2343 6.89349Z" stroke="#C4DFDB" stroke-linecap="round"/>
<rect x="8.74561" y="12.1909" width="29.5088" height="25.1676" rx="0.5" stroke="#C4DFDB"/>
<line x1="22.2969" y1="12.4816" x2="22.2969" y2="37.0677" stroke="#C4DFDB" stroke-linecap="round"/>
<line x1="25.175" y1="12.4816" x2="25.175" y2="37.0677" stroke="#C4DFDB" stroke-linecap="round"/>
<line x1="37.9666" y1="21.7857" x2="25.4391" y2="21.7857" stroke="#C4DFDB" stroke-linecap="round"/>
<line x1="21.5609" y1="21.7857" x2="9.03341" y2="21.7857" stroke="#C4DFDB" stroke-linecap="round"/>
<line x1="37.962" y1="24.6886" x2="25.4622" y2="24.5753" stroke="#C4DFDB" stroke-linecap="round"/>
<line x1="21.5609" y1="24.6931" x2="9.03341" y2="24.6931" stroke="#C4DFDB" stroke-linecap="round"/>
<path d="M27.9612 6.89252C27.531 7.32712 25.9174 9.00911 24.6894 10.2914C24.1027 10.904 24.4988 11.909 25.3466 11.9358C27.3433 11.999 30.1228 11.9973 30.8394 11.5455C31.9907 10.8195 32.6742 8.92784 31.7028 7.61943C30.7314 6.31103 28.6807 6.16566 27.9612 6.89252Z" stroke="#C4DFDB" stroke-linecap="round"/>
<path d="M19.0708 6.89252C19.501 7.32712 21.1146 9.00911 22.3426 10.2914C22.9293 10.904 22.5332 11.909 21.6854 11.9358C19.6887 11.999 16.9092 11.9973 16.1926 11.5455C15.0413 10.8195 14.3578 8.92784 15.3291 7.61943C16.3005 6.31103 18.3512 6.16566 19.0708 6.89252Z" stroke="#C4DFDB" stroke-linecap="round"/>
</svg>
