<svg width="29" height="37" viewBox="0 0 29 37" fill="none" xmlns="http://www.w3.org/2000/svg">
<path d="M12.5921 12.0354H16.7895M16.0263 11.2723C19.25 10.8043 20.9868 9.36437 22.5132 8.21964C24.0395 7.0749 25.2569 4.00425 24.0395 2.49595C22.8221 0.987655 19.0789 3.25912 17.9342 4.78543C16.7895 6.31173 16.1498 8.61362 16.0263 11.2723ZM13.7368 11.2723C13.7368 11.2723 13.7368 6.69331 11.4474 4.78543C9.15789 2.87755 6.86841 2.87752 6.10526 3.64069C5.3421 4.40386 5.3421 6.69333 6.86841 8.21964C8.39473 9.74594 13.7368 11.2723 13.7368 11.2723Z" stroke="white" stroke-width="3"/>
<rect x="1.52631" y="18.5223" width="11.4474" height="17.5526" fill="white"/>
<rect x="16.0263" y="18.5223" width="11.4474" height="17.5526" fill="white"/>
<rect x="16.0263" y="11.6539" width="12.9737" height="6.10526" fill="white"/>
<rect y="11.6539" width="12.9737" height="6.10526" fill="white"/>
</svg>
