<svg width="34" height="25" viewBox="0 0 34 25" fill="none" xmlns="http://www.w3.org/2000/svg">
<path d="M20.8676 2.75727L24.3821 6.71113M20.8676 2.75727H23.174M20.8676 2.75727L22.1855 1H23.7231M24.3821 6.71113L27.8967 2.75727M24.3821 6.71113L25.4804 2.75727M24.3821 6.71113L23.174 2.75727M27.8967 2.75727H25.4804M27.8967 2.75727L26.5787 1H25.1509M25.4804 2.75727H23.174M25.4804 2.75727L25.1509 1M23.174 2.75727L23.7231 1M23.7231 1H25.1509" stroke="#6C5C44" stroke-width="0.5" stroke-linecap="round"/>
<path fill-rule="evenodd" clip-rule="evenodd" d="M25.1911 5.74033C29.0388 6.24412 32.0095 9.53541 32.0095 13.5205C32.0095 17.8543 28.4963 21.3676 24.1625 21.3676C22.396 21.3676 20.7658 20.7839 19.4544 19.7988C19.3549 19.9328 19.2524 20.0643 19.1469 20.1932C20.5432 21.2445 22.2801 21.8676 24.1625 21.8676C28.7724 21.8676 32.5095 18.1305 32.5095 13.5205C32.5095 9.38878 29.5075 5.95817 25.5656 5.29094L25.1911 5.74033ZM23.1513 5.23414C21.6597 5.41425 20.2893 5.98776 19.1469 6.84785C19.2524 6.97681 19.3549 7.10831 19.4544 7.24226C20.6097 6.37444 22.0125 5.81813 23.5379 5.69801L23.1513 5.23414ZM15.8154 13.5205C15.8154 10.9727 16.957 8.69144 18.7565 7.16039C18.8622 7.28939 18.9647 7.42108 19.064 7.55533C17.3817 8.99455 16.3154 11.133 16.3154 13.5205C16.3154 15.9081 17.3817 18.0465 19.064 19.4858C18.9647 19.62 18.8622 19.7517 18.7565 19.8807C16.957 18.3496 15.8154 16.0684 15.8154 13.5205Z" fill="#6C5C44"/>
<path fill-rule="evenodd" clip-rule="evenodd" d="M25.8441 4.95679C29.8585 5.74053 32.8881 9.27674 32.8881 13.5206C32.8881 18.3396 28.9815 22.2462 24.1625 22.2462C22.1866 22.2462 20.3642 21.5895 18.9015 20.4824C18.7908 20.6082 18.6773 20.7312 18.5608 20.8515C20.1139 22.0401 22.0557 22.7462 24.1625 22.7462C29.2577 22.7462 33.3881 18.6157 33.3881 13.5206C33.3881 9.12775 30.318 5.45202 26.2063 4.52207L25.8441 4.95679ZM22.494 4.44537C21.034 4.71207 19.6939 5.32243 18.5608 6.18956C18.6773 6.30987 18.7908 6.43295 18.9015 6.55868C20.0378 5.69863 21.3913 5.11037 22.8651 4.89068L22.494 4.44537ZM14.9368 13.5206C14.9368 10.7125 16.1913 8.19747 18.1705 6.50537C18.2871 6.62474 18.4006 6.747 18.5111 6.87203C16.6301 8.47253 15.4368 10.8572 15.4368 13.5206C15.4368 16.1839 16.6301 18.5686 18.5111 20.1691C18.4006 20.2941 18.2871 20.4164 18.1705 20.5357C16.1914 18.8436 14.9368 16.3286 14.9368 13.5206Z" fill="#6C5C44"/>
<path fill-rule="evenodd" clip-rule="evenodd" d="M25.1911 5.74033C29.0388 6.24412 32.0095 9.53541 32.0095 13.5205C32.0095 17.8543 28.4963 21.3676 24.1625 21.3676C22.396 21.3676 20.7658 20.7839 19.4544 19.7988C19.3549 19.9328 19.2524 20.0643 19.1469 20.1932C20.5432 21.2445 22.2801 21.8676 24.1625 21.8676C28.7724 21.8676 32.5095 18.1305 32.5095 13.5205C32.5095 9.38878 29.5075 5.95817 25.5656 5.29094L25.1911 5.74033ZM23.1513 5.23414C21.6597 5.41425 20.2893 5.98776 19.1469 6.84785C19.2524 6.97681 19.3549 7.10831 19.4544 7.24226C20.6097 6.37444 22.0125 5.81813 23.5379 5.69801L23.1513 5.23414ZM15.8154 13.5205C15.8154 10.9727 16.957 8.69144 18.7565 7.16039C18.8622 7.28939 18.9647 7.42108 19.064 7.55533C17.3817 8.99455 16.3154 11.133 16.3154 13.5205C16.3154 15.9081 17.3817 18.0465 19.064 19.4858C18.9647 19.62 18.8622 19.7517 18.7565 19.8807C16.957 18.3496 15.8154 16.0684 15.8154 13.5205Z" fill="#6C5C44"/>
<path fill-rule="evenodd" clip-rule="evenodd" d="M25.8441 4.95679C29.8585 5.74053 32.8881 9.27674 32.8881 13.5206C32.8881 18.3396 28.9815 22.2462 24.1625 22.2462C22.1866 22.2462 20.3642 21.5895 18.9015 20.4824C18.7908 20.6082 18.6773 20.7312 18.5608 20.8515C20.1139 22.0401 22.0557 22.7462 24.1625 22.7462C29.2577 22.7462 33.3881 18.6157 33.3881 13.5206C33.3881 9.12775 30.318 5.45202 26.2063 4.52207L25.8441 4.95679ZM22.494 4.44537C21.034 4.71207 19.6939 5.32243 18.5608 6.18956C18.6773 6.30987 18.7908 6.43295 18.9015 6.55868C20.0378 5.69863 21.3913 5.11037 22.8651 4.89068L22.494 4.44537ZM14.9368 13.5206C14.9368 10.7125 16.1913 8.19747 18.1705 6.50537C18.2871 6.62474 18.4006 6.747 18.5111 6.87203C16.6301 8.47253 15.4368 10.8572 15.4368 13.5206C15.4368 16.1839 16.6301 18.5686 18.5111 20.1691C18.4006 20.2941 18.2871 20.4164 18.1705 20.5357C16.1914 18.8436 14.9368 16.3286 14.9368 13.5206Z" fill="#6C5C44"/>
<path fill-rule="evenodd" clip-rule="evenodd" d="M18.1434 19.9214C16.3848 21.8875 13.8283 23.1248 10.9829 23.1248C5.67862 23.1248 1.37863 18.8249 1.37863 13.5205C1.37863 8.21624 5.67862 3.91624 10.9829 3.91624C13.8283 3.91624 16.3848 5.15362 18.1434 7.11964C18.2648 7.00545 18.3894 6.89468 18.5172 6.78748C16.6669 4.71849 13.977 3.41624 10.9829 3.41624C5.40248 3.41624 0.878632 7.94009 0.878632 13.5205C0.878632 19.101 5.40248 23.6248 10.9829 23.6248C13.977 23.6248 16.6669 22.3226 18.5172 20.2536C18.3894 20.1464 18.2648 20.0356 18.1434 19.9214ZM18.4675 19.5397C18.5886 19.6544 18.7133 19.7655 18.8412 19.8728C20.2459 18.1373 21.0872 15.9272 21.0872 13.5205C21.0872 11.1139 20.2459 8.90379 18.8412 7.16829C18.7133 7.27557 18.5886 7.38665 18.4675 7.50134C19.7935 9.14812 20.5872 11.2416 20.5872 13.5205C20.5872 15.7994 19.7935 17.893 18.4675 19.5397Z" fill="#6C5C44"/>
<path fill-rule="evenodd" clip-rule="evenodd" d="M18.8127 20.4911C16.8928 22.6462 14.0964 24.0035 10.9829 24.0035C5.19337 24.0035 0.5 19.3101 0.5 13.5205C0.5 7.73098 5.19337 3.03761 10.9829 3.03761C14.0964 3.03761 16.8928 4.39489 18.8127 6.55002C18.9454 6.44803 19.0811 6.34973 19.2197 6.2553C17.2072 3.97549 14.263 2.53761 10.9829 2.53761C4.91723 2.53761 0 7.45484 0 13.5205C0 19.5863 4.91723 24.5035 10.9829 24.5035C14.263 24.5035 17.2072 23.0656 19.2197 20.7858C19.0811 20.6914 18.9454 20.5931 18.8127 20.4911ZM19.1368 20.1094C19.2694 20.2107 19.4051 20.3081 19.5438 20.4013C21.059 18.5185 21.9659 16.1255 21.9659 13.5205C21.9659 10.9156 21.059 8.52255 19.5438 6.63975C19.4051 6.73303 19.2694 6.83038 19.1368 6.93165C20.5934 8.73198 21.4659 11.0244 21.4659 13.5205C21.4659 16.0167 20.5934 18.3091 19.1368 20.1094Z" fill="#6C5C44"/>
<path fill-rule="evenodd" clip-rule="evenodd" d="M1.03201 15.2778C1.08285 15.5638 1.14637 15.85 1.22294 16.1357C2.66726 21.526 8.20782 24.7249 13.5981 23.2805C16.4902 22.5056 18.7514 20.5516 20.0031 18.0742C19.852 18.0037 19.7029 17.929 19.5561 17.8501C18.3662 20.2043 16.2172 22.0611 13.4687 22.7976C8.34515 24.1704 3.07876 21.1299 1.7059 16.0063C1.64088 15.7637 1.58576 15.5207 1.54029 15.2778H1.03201ZM20.4274 15.2778C20.2904 16.0111 20.0688 16.7222 19.7703 17.3975C19.9171 17.4769 20.0662 17.552 20.2175 17.6225C20.5492 16.8771 20.7917 16.09 20.9357 15.2778H20.4274Z" fill="#6C5C44"/>
<path fill-rule="evenodd" clip-rule="evenodd" d="M0.140656 15.2778C0.19972 15.6395 0.277373 16.0016 0.37424 16.3631C1.94416 22.2222 7.96651 25.6992 13.8255 24.1292C16.9938 23.2803 19.4656 21.1294 20.8194 18.4064C20.6611 18.351 20.5046 18.2912 20.3501 18.227C19.0533 20.8057 16.7035 22.8405 13.6961 23.6463C8.10383 25.1447 2.35565 21.826 0.857203 16.2337C0.771887 15.9153 0.702187 15.5964 0.647634 15.2778H0.140656ZM21.3201 15.2778C21.1725 16.1432 20.9169 16.9816 20.5643 17.7746C20.7186 17.8381 20.8749 17.897 21.033 17.9512C21.4077 17.1026 21.6764 16.2046 21.8271 15.2778H21.3201Z" fill="#6C5C44"/>
<path fill-rule="evenodd" clip-rule="evenodd" d="M21.3078 5.68579C21.2261 5.71583 21.1449 5.74713 21.0642 5.77967C21.083 5.82127 21.1015 5.86301 21.1198 5.90486L21.3078 5.68579ZM20.756 6.3289C20.7082 6.2118 20.6584 6.09565 20.6063 5.98052C18.4718 6.99365 16.7787 8.9017 16.1193 11.3627C16.0738 11.5326 16.0339 11.7026 15.9994 11.8726L16.7534 10.9938C17.4228 9.02147 18.8166 7.47187 20.5528 6.56566L20.756 6.3289Z" fill="#6C5C44"/>
<path fill-rule="evenodd" clip-rule="evenodd" d="M22.3416 4.4808C21.7666 4.5983 21.2065 4.77013 20.6686 4.99212C20.7499 5.13846 20.8278 5.28674 20.9021 5.43683C21.1894 5.32005 21.4832 5.21837 21.7825 5.13249L22.3416 4.4808ZM15.5245 12.4261C15.5739 12.0395 15.6499 11.6517 15.7536 11.2648C16.4429 8.69215 18.2127 6.69758 20.444 5.63848C20.3696 5.4891 20.2915 5.34161 20.2099 5.19615C17.8602 6.31834 15.9974 8.42298 15.2706 11.1353C15.097 11.7835 14.9968 12.434 14.9651 13.0781L15.5245 12.4261Z" fill="#6C5C44"/>
</svg>
